<svg
    xmlns="http://www.w3.org/2000/svg"
    width="136"
    height="26"
    viewBox="0 0 136 26"
    fill="none"
    class="w-64"
>
    <rect width="26" height="26" rx="13" fill="url(#paint0_linear_7083_6806)" />
    <g clip-path="url(#clip0_7083_6806)">
        <path
            d="M15.5769 8.43934C16.8657 8.54688 17.9228 9.28348 18.7478 10.6493C19.9852 12.698 19.3058 14.6824 18.324 15.6503C17.6691 16.2958 15.6631 18.2635 12.3064 21.5536C12.241 21.5756 12.1864 21.5763 12.1433 21.5546C12.0601 21.5124 12.0183 21.3878 12.0183 21.1825V17.5429C12.0184 17.5082 12.0326 17.4753 12.0574 17.4511C15.7185 13.8749 17.6036 12.0216 17.7127 11.8915C17.8204 11.7625 17.8203 11.6494 17.7127 11.5526H14.2019C14.1306 11.5525 14.0732 11.4947 14.073 11.4237V8.56824C14.073 8.49704 14.1305 8.43944 14.2019 8.43934H15.5769ZM13.7488 4.43836C13.8144 4.41631 13.8697 4.41645 13.9129 4.43836C13.9958 4.48078 14.0369 4.60453 14.0369 4.80946V8.4491C14.0369 8.48359 14.0234 8.51668 13.9988 8.5409C10.3359 12.1188 8.45001 13.9728 8.34254 14.1014C8.23495 14.2304 8.23478 14.3436 8.34254 14.4403H11.8533C11.9248 14.4403 11.9832 14.498 11.9832 14.5692V17.4247C11.9829 17.4958 11.9247 17.5536 11.8533 17.5536H10.4783C9.18956 17.4461 8.13241 16.7093 7.30738 15.3436C6.06988 13.295 6.74939 11.3106 7.73121 10.3427C8.38579 9.69741 10.3916 7.72907 13.7488 4.43836Z"
            fill="white"
        />
    </g>
    <path
        d="M38.584 22.312C35.896 22.312 33.688 21.352 31.96 19.432L34.384 17.032C35.568 18.408 37.048 19.096 38.824 19.096C39.768 19.096 40.488 18.896 40.984 18.496C41.48 18.096 41.728 17.544 41.728 16.84C41.728 16.28 41.56 15.832 41.224 15.496C40.904 15.16 40.344 14.936 39.544 14.824L37.84 14.584C34.272 14.088 32.488 12.352 32.488 9.376C32.488 8.336 32.752 7.416 33.28 6.616C33.808 5.816 34.56 5.2 35.536 4.768C36.528 4.32 37.688 4.096 39.016 4.096C41.576 4.096 43.592 4.936 45.064 6.616L42.64 9.016C42.176 8.472 41.632 8.056 41.008 7.768C40.4 7.464 39.664 7.312 38.8 7.312C37.92 7.312 37.256 7.472 36.808 7.792C36.36 8.112 36.136 8.568 36.136 9.16C36.136 9.768 36.304 10.224 36.64 10.528C36.992 10.816 37.568 11.024 38.368 11.152L40.072 11.44C41.88 11.76 43.216 12.336 44.08 13.168C44.944 14 45.376 15.152 45.376 16.624C45.376 17.744 45.104 18.736 44.56 19.6C44.032 20.448 43.256 21.112 42.232 21.592C41.208 22.072 39.992 22.312 38.584 22.312ZM54.8894 22.312C53.3214 22.312 51.9614 21.968 50.8094 21.28C49.6574 20.576 48.7614 19.544 48.1214 18.184C47.4974 16.824 47.1854 15.168 47.1854 13.216C47.1854 11.264 47.4974 9.608 48.1214 8.248C48.7614 6.872 49.6574 5.84 50.8094 5.152C51.9614 4.448 53.3214 4.096 54.8894 4.096C56.4414 4.096 57.7934 4.448 58.9454 5.152C60.0974 5.84 60.9854 6.872 61.6094 8.248C62.2494 9.608 62.5694 11.264 62.5694 13.216C62.5694 15.168 62.2494 16.824 61.6094 18.184C60.9854 19.544 60.0974 20.576 58.9454 21.28C57.7934 21.968 56.4414 22.312 54.8894 22.312ZM54.8894 19.072C56.0574 19.072 56.9854 18.672 57.6734 17.872C58.3614 17.072 58.7054 15.96 58.7054 14.536V11.872C58.7054 10.448 58.3614 9.336 57.6734 8.536C56.9854 7.736 56.0574 7.336 54.8894 7.336C53.6894 7.336 52.7454 7.736 52.0574 8.536C51.3854 9.336 51.0494 10.448 51.0494 11.872V14.536C51.0494 15.96 51.3854 17.072 52.0574 17.872C52.7454 18.672 53.6894 19.072 54.8894 19.072ZM68.5699 22H65.1379V4.408H69.0019L73.4419 12.808H73.5139L77.8819 4.408H81.7699V22H78.3379V10.072H78.2659L76.9699 12.688L73.4419 19.096L69.9859 12.712L68.6419 9.928H68.5699V22ZM88.4749 22H85.0429V4.408H89.0269L94.0429 13.024L95.7229 16.6H95.8189V4.408H99.2509V22H95.2669L90.2509 13.384L88.5469 9.808H88.4749V22ZM114.318 18.76V22H102.51V4.408H114.318V7.648H106.158V11.488H113.214V14.704H106.158V18.76H114.318ZM123.169 15.424L119.377 22H115.441L121.105 12.928L115.681 4.408H119.929L123.481 10.48H123.553L127.153 4.408H131.089L125.665 12.976L131.377 22H127.153L123.265 15.424H123.169Z"
        fill="url(#paint1_linear_7083_6806)"
    />
    <defs>
        <linearGradient
            id="paint0_linear_7083_6806"
            x1="0"
            y1="0"
            x2="18.2943"
            y2="32.8692"
            gradientUnits="userSpaceOnUse"
        >
            <stop stop-color="#16CDFF" />
            <stop offset="0.41213" stop-color="#6500FF" />
            <stop offset="0.810048" stop-color="#FF00E4" />
            <stop offset="1" stop-color="#D1003F" />
        </linearGradient>
        <linearGradient
            id="paint1_linear_7083_6806"
            x1="31"
            y1="12.5"
            x2="136"
            y2="12.5"
            gradientUnits="userSpaceOnUse"
        >
            <stop stop-color="#FF29D0" />
            <stop offset="1" stop-color="#1885FF" />
        </linearGradient>
        <clipPath id="clip0_7083_6806">
            <rect
                width="12.7787"
                height="17.1489"
                fill="white"
                transform="translate(6.63832 4.42188)"
            />
        </clipPath>
    </defs>
</svg>