<svg width="26" height="26" viewBox="0 0 26 26" fill="none" xmlns="http://www.w3.org/2000/svg">
<rect width="26" height="26" rx="13" fill="url(#paint0_linear_7788_1490)"/>
<g clip-path="url(#clip0_7788_1490)">
<path d="M15.5769 8.43934C16.8657 8.54688 17.9227 9.28348 18.7478 10.6493C19.9852 12.698 19.3058 14.6824 18.3239 15.6503C17.669 16.2958 15.663 18.2635 12.3063 21.5536C12.2409 21.5756 12.1864 21.5763 12.1433 21.5546C12.06 21.5124 12.0182 21.3878 12.0183 21.1825V17.5429C12.0183 17.5082 12.0325 17.4753 12.0573 17.4511C15.7185 13.8749 17.6035 12.0216 17.7126 11.8915C17.8204 11.7625 17.8203 11.6494 17.7126 11.5526H14.2019C14.1306 11.5525 14.0732 11.4947 14.0729 11.4237V8.56824C14.0729 8.49704 14.1304 8.43944 14.2019 8.43934H15.5769ZM13.7487 4.43836C13.8144 4.41631 13.8696 4.41645 13.9128 4.43836C13.9957 4.48078 14.0368 4.60453 14.0368 4.80946V8.4491C14.0368 8.48359 14.0233 8.51668 13.9987 8.5409C10.3358 12.1188 8.44995 13.9728 8.34248 14.1014C8.23489 14.2304 8.23472 14.3436 8.34248 14.4403H11.8532C11.9247 14.4403 11.9831 14.498 11.9831 14.5692V17.4247C11.9829 17.4958 11.9246 17.5536 11.8532 17.5536H10.4782C9.1895 17.4461 8.13235 16.7093 7.30732 15.3436C6.06982 13.295 6.74932 11.3106 7.73115 10.3427C8.38573 9.69741 10.3915 7.72907 13.7487 4.43836Z" fill="white"/>
</g>
<defs>
<linearGradient id="paint0_linear_7788_1490" x1="0" y1="0" x2="18.2943" y2="32.8692" gradientUnits="userSpaceOnUse">
<stop stop-color="#16CDFF"/>
<stop offset="0.41213" stop-color="#6500FF"/>
<stop offset="0.810048" stop-color="#FF00E4"/>
<stop offset="1" stop-color="#D1003F"/>
</linearGradient>
<clipPath id="clip0_7788_1490">
<rect width="12.7787" height="17.1489" fill="white" transform="translate(6.63831 4.42188)"/>
</clipPath>
</defs>
</svg>
